solid OpenSCAD_Model
  facet normal 1 0 0
    outer loop
      vertex 3 8 20.6
      vertex 3 0 20.6
      vertex 3 8 6
    endloop
  endfacet
  facet normal 1 -0 0
    outer loop
      vertex 3 8 6
      vertex 3 20 3
      vertex 3 20 6
    endloop
  endfacet
  facet normal 1 0 0
    outer loop
      vertex 3 8 6
      vertex 3 0 3
      vertex 3 20 3
    endloop
  endfacet
  facet normal 1 0 0
    outer loop
      vertex 3 0 3
      vertex 3 8 6
      vertex 3 0 20.6
    endloop
  endfacet
  facet normal -1 0 0
    outer loop
      vertex 6 0 3
      vertex 6 20 20.6
      vertex 6 20 3
    endloop
  endfacet
  facet normal -1 -0 0
    outer loop
      vertex 6 20 20.6
      vertex 6 0 3
      vertex 6 0 20.6
    endloop
  endfacet
  facet normal -0 0 1
    outer loop
      vertex 3 20 3
      vertex 6 0 3
      vertex 6 20 3
    endloop
  endfacet
  facet normal 0 0 1
    outer loop
      vertex 6 0 3
      vertex 3 20 3
      vertex 3 0 3
    endloop
  endfacet
  facet normal 0 -1 0
    outer loop
      vertex 0 0 20.6
      vertex 3 0 3
      vertex 3 0 20.6
    endloop
  endfacet
  facet normal 0 -1 0
    outer loop
      vertex 0 0 0
      vertex 6 0 3
      vertex 3 0 3
    endloop
  endfacet
  facet normal 0 -1 0
    outer loop
      vertex 0 0 0
      vertex 3 0 3
      vertex 0 0 20.6
    endloop
  endfacet
  facet normal 0 -1 -0
    outer loop
      vertex 6 0 3
      vertex 0 0 0
      vertex 8.5 0 2
    endloop
  endfacet
  facet normal 0 -1 0
    outer loop
      vertex 30 0 0
      vertex 8.5 0 2
      vertex 0 0 0
    endloop
  endfacet
  facet normal 0 -1 0
    outer loop
      vertex 8.5 0 2
      vertex 30 0 0
      vertex 30 0 2
    endloop
  endfacet
  facet normal 0 -1 0
    outer loop
      vertex 6 0 3
      vertex 8.5 0 20.6
      vertex 6 0 20.6
    endloop
  endfacet
  facet normal 0 -1 -0
    outer loop
      vertex 8.5 0 20.6
      vertex 6 0 3
      vertex 8.5 0 2
    endloop
  endfacet
  facet normal 0 1 0
    outer loop
      vertex 30 20 2
      vertex 30 20 0
      vertex 8.5 20 2
    endloop
  endfacet
  facet normal 0 1 0
    outer loop
      vertex 8.5 20 20.6
      vertex 6 20 3
      vertex 6 20 20.6
    endloop
  endfacet
  facet normal 0 1 0
    outer loop
      vertex 0 20 0
      vertex 6 20 3
      vertex 8.5 20 2
    endloop
  endfacet
  facet normal 0 1 -0
    outer loop
      vertex 8.5 20 2
      vertex 6 20 3
      vertex 8.5 20 20.6
    endloop
  endfacet
  facet normal 0 1 0
    outer loop
      vertex 3 20 6
      vertex 3 20 3
      vertex 2.1 20 6
    endloop
  endfacet
  facet normal 0 1 -0
    outer loop
      vertex 2.1 20 6
      vertex 0 20 20.6
      vertex 2.1 20 20.6
    endloop
  endfacet
  facet normal 0 1 0
    outer loop
      vertex 2.1 20 6
      vertex 0 20 0
      vertex 0 20 20.6
    endloop
  endfacet
  facet normal 0 1 0
    outer loop
      vertex 3 20 3
      vertex 0 20 0
      vertex 2.1 20 6
    endloop
  endfacet
  facet normal 0 1 0
    outer loop
      vertex 6 20 3
      vertex 0 20 0
      vertex 3 20 3
    endloop
  endfacet
  facet normal 0 1 0
    outer loop
      vertex 0 20 0
      vertex 8.5 20 2
      vertex 30 20 0
    endloop
  endfacet
  facet normal 1 -0 0
    outer loop
      vertex 2.1 8 20.6
      vertex 2.1 20 6
      vertex 2.1 20 20.6
    endloop
  endfacet
  facet normal 1 0 0
    outer loop
      vertex 2.1 20 6
      vertex 2.1 8 20.6
      vertex 2.1 8 6
    endloop
  endfacet
  facet normal -0 0 1
    outer loop
      vertex 2.1 20 6
      vertex 3 8 6
      vertex 3 20 6
    endloop
  endfacet
  facet normal 0 0 1
    outer loop
      vertex 3 8 6
      vertex 2.1 20 6
      vertex 2.1 8 6
    endloop
  endfacet
  facet normal 0 1 -0
    outer loop
      vertex 3 8 6
      vertex 2.1 8 20.6
      vertex 3 8 20.6
    endloop
  endfacet
  facet normal 0 1 0
    outer loop
      vertex 2.1 8 20.6
      vertex 3 8 6
      vertex 2.1 8 6
    endloop
  endfacet
  facet normal -1 0 0
    outer loop
      vertex 0 0 0
      vertex 0 20 20.6
      vertex 0 20 0
    endloop
  endfacet
  facet normal -1 -0 0
    outer loop
      vertex 0 20 20.6
      vertex 0 0 0
      vertex 0 0 20.6
    endloop
  endfacet
  facet normal 0 0 1
    outer loop
      vertex 2.1 20 20.6
      vertex 0 20 20.6
      vertex 2.1 8 20.6
    endloop
  endfacet
  facet normal -0 0 1
    outer loop
      vertex 2.1 8 20.6
      vertex 3 0 20.6
      vertex 3 8 20.6
    endloop
  endfacet
  facet normal 0 0 1
    outer loop
      vertex 0 0 20.6
      vertex 2.1 8 20.6
      vertex 0 20 20.6
    endloop
  endfacet
  facet normal 0 0 1
    outer loop
      vertex 2.1 8 20.6
      vertex 0 0 20.6
      vertex 3 0 20.6
    endloop
  endfacet
  facet normal -0 0 1
    outer loop
      vertex 6 20 20.6
      vertex 8.5 0 20.6
      vertex 8.5 20 20.6
    endloop
  endfacet
  facet normal 0 0 1
    outer loop
      vertex 8.5 0 20.6
      vertex 6 20 20.6
      vertex 6 0 20.6
    endloop
  endfacet
  facet normal 1 -0 0
    outer loop
      vertex 8.5 0 20.6
      vertex 8.5 20 2
      vertex 8.5 20 20.6
    endloop
  endfacet
  facet normal 1 0 0
    outer loop
      vertex 8.5 20 2
      vertex 8.5 0 20.6
      vertex 8.5 0 2
    endloop
  endfacet
  facet normal -0 0 1
    outer loop
      vertex 8.5 20 2
      vertex 30 0 2
      vertex 30 20 2
    endloop
  endfacet
  facet normal 0 0 1
    outer loop
      vertex 30 0 2
      vertex 8.5 20 2
      vertex 8.5 0 2
    endloop
  endfacet
  facet normal 1 -0 0
    outer loop
      vertex 30 0 2
      vertex 30 20 0
      vertex 30 20 2
    endloop
  endfacet
  facet normal 1 0 0
    outer loop
      vertex 30 20 0
      vertex 30 0 2
      vertex 30 0 0
    endloop
  endfacet
  facet normal 0 0 -1
    outer loop
      vertex 0 0 0
      vertex 30 20 0
      vertex 30 0 0
    endloop
  endfacet
  facet normal -0 0 -1
    outer loop
      vertex 30 20 0
      vertex 0 0 0
      vertex 0 20 0
    endloop
  endfacet
endsolid OpenSCAD_Model
